<svg xmlns="http://www.w3.org/2000/svg" viewBox="0 0 368.66 368.66"><defs><style>.cls-1{fill:#fff;}.cls-2{fill:none;stroke:#fff;stroke-miterlimit:10;stroke-width:20px;}</style></defs><g id="レイヤー_2" data-name="レイヤー 2"><g id="レイヤー_1-2" data-name="レイヤー 1"><path class="cls-1" d="M190.72,204.14l.73,1.79a12.85,12.85,0,0,0-1.28-.13.71.71,0,0,0-.52.19c-.2.25,0,.46.21.63,0,0,.11.09.12.14s.09.27,0,.34a.36.36,0,0,1-.32.17A4.75,4.75,0,0,1,189,207a.82.82,0,0,0-1,.32c-.7,1.14-1.85,2.06-1.66,3.62,0,.18-.24.42-.41.6s-.44.29-.57.49,0,.36.08.52a.34.34,0,0,0,.33.11,21.07,21.07,0,0,0,1.9-1.35c.65-.54,1.22-1.18,1.86-1.74a.54.54,0,0,1,.52,0,.7.7,0,0,1,.16.53,1.62,1.62,0,0,1-1,1.53c-.23.09-.46.21-.78.36.12.35.22.64.3.94s-.08.55-.37.55a4.66,4.66,0,0,0-1.93.1c-.53.22-.67.33-.56,1a1.12,1.12,0,0,1-.27,1.07c-.28.27-.51.59-.77.89,1,.38,1,.42,1.4-.19a1.82,1.82,0,0,1,2.17-1.05l-.63.77c-.69.9-.69.9.22,1.81a.59.59,0,0,1-.07,1c-.16.1-.36.15-.53.24s-.34.19-.52.29a2.52,2.52,0,0,0,.09.58c.21.46.29.88-.25,1.17a1.2,1.2,0,0,0-.53.77c-.29.87-.71,1.18-1.56,1a1.33,1.33,0,0,0-1.6.56c.46.42.93.82,1.36,1.27a.62.62,0,0,1,0,.55c-.06.13-.32.3-.43.27a2.26,2.26,0,0,0-2.54,1c-.2.24-.37.5-.58.8a9,9,0,0,1,1.09.57c.4.28.68.64.29,1.15a.78.78,0,0,0-.07.91.84.84,0,0,1-.26,1.21c-.93.62-1.28,1.81-2.34,2.31-.18.08-.3.43-.32.68a11.7,11.7,0,0,0,0,1.32,2.38,2.38,0,0,1-.5.41,4.32,4.32,0,0,0-2.28,2.34,3.17,3.17,0,0,1-2,1.81,3.45,3.45,0,0,0-2,1.46c-.49.74-1.46,1.12-1.72,2.08a.43.43,0,0,1-.29.25c-1,.14-1.45,1-2.07,1.67a12.54,12.54,0,0,1-1.85,1.72,1.68,1.68,0,0,1-2.17.17c-.05,0-.11-.11-.16-.11-1.35,0-2.46-.72-3.69-1.07a13.51,13.51,0,0,0-2.34-.27c-.77-1.19-.77-1.19-2.27-1-.55-.64-1.1-1.28-1.66-1.91a1.6,1.6,0,0,0-.57-.5,3.35,3.35,0,0,1-2-2.5,1.78,1.78,0,0,0-1.52-1.57.79.79,0,0,1-.67-.62c-.22-.75-.41-1.51-.63-2.38a8.89,8.89,0,0,0-1-.34,2.92,2.92,0,0,1-2.21-1.75c-.08-.18-.24-.32-.31-.5a9.45,9.45,0,0,0-2-3.28,3,3,0,0,1-1-1.68,2,2,0,0,0-1.09-1.55,8,8,0,0,1-2.44-2.23,3.29,3.29,0,0,0-3.27-1.4c-1,.12-1.85.19-2.16-1-1-.24-1.11-1.2-1.57-1.87-.22-.34,0-.63.27-.84a3.73,3.73,0,0,1,.53-.26c.92-.49,1-1,.35-1.82a3.5,3.5,0,0,0-1.07-.85,1.49,1.49,0,0,1-1-1.73c0-.06,0-.13,0-.19a2.22,2.22,0,0,0-1.22-2.24c.3-.63.54-1.09.74-1.56a8.36,8.36,0,0,0,0-6.67,2.12,2.12,0,0,1,.11-1.48A13.1,13.1,0,0,0,131,199a2.82,2.82,0,0,1,.35-1.86c.16-.22.11-.62.13-.93s-.08-.46,0-.56a3.33,3.33,0,0,0,.76-2.74c0-.2.22-.46.4-.63s.48-.46.38-.83a.85.85,0,0,1,.27-.87c.26-.28.65-.64.63-1-.07-1.79,1.39-3.08,1.46-4.84a5.68,5.68,0,0,1,.91-2.36c1-1.66,1.1-3.61,2.07-5.27a3.25,3.25,0,0,0,.57-2.8c0-.1.11-.35.24-.44A3.75,3.75,0,0,0,140.6,171a11,11,0,0,1,1.12-3.28c1.09-2.16,1.92-4.45,2.87-6.67q1.64-3.79,3.3-7.56c.71-1.62,1.37-3.27,2.18-4.83,1.38-2.66,2.38-5.49,3.93-8.07.84-1.38,1.29-3,2-4.42,1-2,2.1-4.08,3.32-6,.67-1.06,1.14-2.19,1.75-3.26,1.49-2.62,3.29-5,5-7.52a7.49,7.49,0,0,0,.9-1.73,3.81,3.81,0,0,1,.89-1.48c.84-.85.89-1.31.18-2.23a17.54,17.54,0,0,0-3.88-3.86,16.15,16.15,0,0,0-3.82-2,3.41,3.41,0,0,0-1.14-.23,13.84,13.84,0,0,1-2.31-.34,10.32,10.32,0,0,0-4.83.43,8.23,8.23,0,0,1-1.5.43,13.9,13.9,0,0,0-5.13,1.83,15.19,15.19,0,0,0-2.27,1.85l-1.8,1.5c-.25.21-.63.41-.7.68-.26,1-1.15,1.33-1.83,1.9-.19.16-.55.24-.63.44-.47,1.2-1.69,1.58-2.5,2.41a8.59,8.59,0,0,0-1.33,1.65,7.32,7.32,0,0,1-1.84,2.52,1.24,1.24,0,0,0-.46.6,9.69,9.69,0,0,1-2.29,3.39,3.77,3.77,0,0,0-1,1.44,1.63,1.63,0,0,1-.57.75,1.68,1.68,0,0,0-.83,1.81,2,2,0,0,1-.56,1.59,3.59,3.59,0,0,0-1,1.82c-.26,1-1.12,1.76-1.14,2.87,0,.11-.12.24-.22.32-1.13,1-1.42,2.46-2,3.77a5.6,5.6,0,0,1-.49,1.26,7.73,7.73,0,0,0-1.29,3,7,7,0,0,1-.87,2.56c-.3.44-.11,1.18-.36,1.67a2.18,2.18,0,0,0-.19,2,1.26,1.26,0,0,1-.2.91,4.82,4.82,0,0,0-.82,2.78,1.64,1.64,0,0,1-.19.75,10.67,10.67,0,0,0-.87,3.6,4.33,4.33,0,0,1-.86,2.36,1.41,1.41,0,0,0-.29,1.44c.3,1-.44,1.89-.42,2.87-.86.94-.64,2.1-.58,3.19a1.64,1.64,0,0,1-.72,1.67,3.09,3.09,0,0,0-1.1,2c-.23.93.18,2-.47,2.83,0,1,0,2,0,2.94,0,.53,0,1,0,1.57,0,1-.19,1.87-1.35,2,.13,1,.26,1.81.33,2.64,0,.32.07.77-.11,1-.78.75-.45,1.71-.49,2.56a6.16,6.16,0,0,1-.32,2.44,2.07,2.07,0,0,0-.09,1,5,5,0,0,1-.92,3.32,2.31,2.31,0,0,0-.3,1.1,12.45,12.45,0,0,0-.06,1.37,3.34,3.34,0,0,1-.66,2.58c-.19.21-.18.61-.28.92s-.13.6-.31.7c-1,.59-.78,1.53-.73,2.43,0,.57.23,1.17-.22,1.69a.42.42,0,0,0-.11.36c.41,1.14-.14,2.18-.33,3.25a3,3,0,0,0-.07,1,3.47,3.47,0,0,1-.19,2.64c-.13.21,0,.62.11.93s-.48,1,.26,1.14c.49.1.46-.54.73-.79a1,1,0,0,1,.7-.16c.11,0,.24.28.27.45a7.22,7.22,0,0,0,.13,1.16c.28.79.46,1.51-.35,2.11a.42.42,0,0,0-.13.35c.22,1-.61,1.32-1.24,1.76,0,0-.06.11-.16.3.37.52.76,1.12,1.18,1.69a1.45,1.45,0,0,1,.31,1.46,2.79,2.79,0,0,0,.13,2.1,2.22,2.22,0,0,1,.19,1.13,4.64,4.64,0,0,0,.85,3.35,1.4,1.4,0,0,1,.2,1.64,1.68,1.68,0,0,0-.11,1.32,1.62,1.62,0,0,1-.77,1.85c-.6.39-1.12.9-1.69,1.33a2.17,2.17,0,0,1-2.21.44c-.42-.16-1-.11-1.31-.35a3.22,3.22,0,0,0-2.81-.36,21.59,21.59,0,0,1-3.1.42,1.84,1.84,0,0,1-1.29-.32c-1-1-2-.59-3-.31-.06,0-.11.07-.17.1-1.54.55-1.93.42-3.14-1a.71.71,0,0,1,.1-.14c.3-.29,1.08,0,1-.64,0-.51-.62-.6-1.06-.74A3.53,3.53,0,0,1,88,232.34c-.36-.69-1.35-.83-1.5-1.72,0-.12-.31-.21-.49-.28s-.56-.1-.72-.27c-1.41-1.43-3.28-2.11-5-3a5,5,0,0,1-2.15-1.93,4.17,4.17,0,0,0-1-1.19A3.48,3.48,0,0,1,76,222.63a2.52,2.52,0,0,0-1.92-1.72c-.23-.07-.4-.31-.65-.51.07-.33.11-.65.2-1a1.28,1.28,0,0,0-.31-1.44,3.07,3.07,0,0,1-.78-2.14,6.29,6.29,0,0,0-.94-3.35,13.41,13.41,0,0,1-.6-3.21c.14-1,.31-1.93.48-2.9a11.6,11.6,0,0,0,.29-1.54,7.15,7.15,0,0,1,1.4-3.82,9.89,9.89,0,0,0,1.53-2.73c.08-.29.39-.5.57-.76.47-.71,1-1.4,1.38-2.13a1.73,1.73,0,0,0,.19-.95c-.19-2.33,0-4.68-.34-7a13.55,13.55,0,0,1,.07-2.54,7.92,7.92,0,0,0-.31-2.11c-.14-.57.25-1.24.33-1.88a7.76,7.76,0,0,0-.08-1.17,32,32,0,0,1,0-3.53,10,10,0,0,0-.39-3.69,12.26,12.26,0,0,1-.41-2.09,23.78,23.78,0,0,0-3.21-9.81c-.57-.95-.92-2-1.45-3q-1.51-2.76-3.14-5.44a5,5,0,0,0-1-1c-.19-.17-.49-.27-.61-.47-1.12-1.91-3-3-4.6-4.4-.49-.43-.9-.94-1.39-1.37s-1-.79-1.53-1.18c0,0-.15,0-.18-.08-1-1.28-2.66-1.58-4-2.43A5,5,0,0,1,53.14,140a13,13,0,0,0-3.1-3A19,19,0,0,1,45.83,133a10.45,10.45,0,0,0-2.5-2.19l-.57-.42a.46.46,0,0,1,.52-.53,3.32,3.32,0,0,0,1.84-.61,13.46,13.46,0,0,1,4.6-1.63c2-.44,4-.82,6-1.26a16.84,16.84,0,0,1,10.2.88,38.43,38.43,0,0,0,5.51,2,12.72,12.72,0,0,1,5.15,2.64,12.88,12.88,0,0,0,2.38,1.27,20,20,0,0,1,1.89,1,10.54,10.54,0,0,0,2.26,1.17,9.14,9.14,0,0,1,1.2.63c.39.23.74.53,1.14.72a4.23,4.23,0,0,1,1.4,1,10.43,10.43,0,0,0,1.17,1c.2.17.56.29.59.48.17.94,1,1.2,1.65,1.56a5.21,5.21,0,0,1,2.18,2.64,2,2,0,0,0,.26.52c.6.75,1.19.58,1.62.05a75.29,75.29,0,0,0,4.86-6.91c1.52-2.36,3.22-4.59,4.91-6.84a24.93,24.93,0,0,0,1.9-3,3.28,3.28,0,0,1,1.19-1.26,2,2,0,0,0,.77-.82,4.09,4.09,0,0,1,2.12-2.59c.43-.17.54-.63.48-1.17-.12-1,.14-1.28,1.21-1.47a1.4,1.4,0,0,0,.72-.23,9.51,9.51,0,0,0,1.35-1.42,1.75,1.75,0,0,0,.3-2c-.16-.32.15-.51.58-.38,1.16.34,1.36.18,1.29-1a3.63,3.63,0,0,1,0-.5c.26-.06.56-.12.86-.2a2.17,2.17,0,0,0,1.14-1c.35-.52-.31-.81-.28-1.33.24,0,.49,0,.74-.07s.5-.11.86-.2a3.66,3.66,0,0,1-.19-.76,1.25,1.25,0,0,1,.16-.47l.49.28.24.15a17,17,0,0,0,3.13-2.53,1.24,1.24,0,0,0,.31-1.4c-.22-.59-.07-.71.58-1,.3-.12.72-.18.85-.4.78-1.3,2.36-1.62,3.27-2.75,2.23-1,4-2.64,6.21-3.68a29.49,29.49,0,0,1,3.32-1.68c1.16-.39,2.25-1,3.38-1.52a33.54,33.54,0,0,1,11-2.51,18.2,18.2,0,0,1,2,0,4.52,4.52,0,0,0,1,0,1.91,1.91,0,0,1,1.69.14c.23.17.64.08,1,.13.57.09,1.15.2,1.72.31.32.06.63.17.95.23a31.12,31.12,0,0,1,12,5.13,12,12,0,0,1,3.17,2.24,1.36,1.36,0,0,0,1.09.34,3.65,3.65,0,0,0,2.72-1.33,19.22,19.22,0,0,1,2-2.16c1.63-1.79,3.34-3.5,5-5.28.94-1,2-1.81,3-2.78,2.37-2.43,4.85-4.77,7.32-7.11.66-.63,1.33-1.23,2-1.89a20.19,20.19,0,0,1,2.83-2,37.28,37.28,0,0,0,3.75-2.8A6.55,6.55,0,0,1,208,74.63a2.5,2.5,0,0,0,1-.54c2.38-2,5.19-3.27,7.85-4.79.57-.33,1.17-.59,1.74-.92a5.33,5.33,0,0,1,2.5-1c1.69-1.08,3.74-1.11,5.52-1.91a3.39,3.39,0,0,1,.95-.23c.32-.06.66,0,1-.13,1.78-.45,3.57-.85,5.31-1.41a27.2,27.2,0,0,1,5.58-1c.57-.06,1.17,0,1.64-.5a.82.82,0,0,1,.72-.14,5.69,5.69,0,0,0,2.53,0,40,40,0,0,1,8,0,11.63,11.63,0,0,0,1.18,0,34.75,34.75,0,0,1,6.57,1A25.55,25.55,0,0,1,265,64.58a5.88,5.88,0,0,0,1.48.5c1.51.17,2.65,1.09,3.89,1.79.67.38,1.16,1,2,1.23.2,0,.38.34.5.56.26.45.48.92.72,1.39s.42.81.67,1.2c.41.68,1.63.75,1.45,1.89.43.73.89,1.44,1.29,2.19s.71,1.54,1.08,2.29a10.92,10.92,0,0,1,1.13,2.27c.42,1.84,1.45,3.5,1.56,5.43a6.08,6.08,0,0,0,.46,1.49,4.69,4.69,0,0,1,.33,2.5,14.3,14.3,0,0,0,0,3.52c0,.63.28,1.25-.23,1.83-.1.11-.07.38,0,.56a20.72,20.72,0,0,0,.6,2,2.05,2.05,0,0,1,.11.92,19.64,19.64,0,0,1-1.33,5.76.92.92,0,0,0,0,.71,1.39,1.39,0,0,1,.16,1.64,1.6,1.6,0,0,0-.15.57,7.11,7.11,0,0,1-.58,2.66c-.4.71-.19,1.68-.76,2.39a.7.7,0,0,0-.1.38,3.64,3.64,0,0,1-1.14,2.61,2.55,2.55,0,0,0-.57,1.42,4.66,4.66,0,0,1-1,2.49,7.27,7.27,0,0,0-1.2,2.45,9.78,9.78,0,0,1-1,2.12c-.37.61-.28,1.42-.94,1.9a1.21,1.21,0,0,0-.4.86c0,1.54-.94,2.67-1.64,3.9a2.34,2.34,0,0,0-.5,1.62,1.33,1.33,0,0,1-.51,1.21,14,14,0,0,1-1.05,1.13c-.57.46-1.1.84-1,1.72,0,.29-.47.59-.67.92a8.33,8.33,0,0,0-1,1.86,11.44,11.44,0,0,1-.53,2.05c-.3.56.27,1,.26,1.46-.8.45-.76.47-1.36,1.47a17.64,17.64,0,0,1-1.3,1.69,5.91,5.91,0,0,0-.54.8.52.52,0,0,0,.44.71,3.41,3.41,0,0,1,1.15,0,4,4,0,0,0,2.32,0,3,3,0,0,1,1.33-.18,6.14,6.14,0,0,0,3.1,0,3.59,3.59,0,0,1,1.18,0c1.49.19,3,.49,4.47.62a32.17,32.17,0,0,1,7.26,1.61,52.83,52.83,0,0,1,5.85,2.21,39.4,39.4,0,0,1,7.32,4.92c1.27,1,2.26,2.33,3.72,3.13a1.51,1.51,0,0,1,.66.93,3.61,3.61,0,0,0,1.51,2.22,3.51,3.51,0,0,1,1.25,1.69c.3.91,1.09,1.64,1,2.7,0,.16.17.36.32.48A6.63,6.63,0,0,1,307.6,170a5.58,5.58,0,0,0,.62,1.43,3.1,3.1,0,0,1,.87,2.31c0,.29.2.61.31.91.42,1.24.83,2.48,1.28,3.71a2.66,2.66,0,0,0,.61,1,.93.93,0,0,1,.22,1,2.7,2.7,0,0,0,0,1.13c.16.9.4,1.78.53,2.68.05.36,0,1-.21,1.1-1,.55-.54,1.24-.42,2a8.62,8.62,0,0,1-.13,2.14,4.62,4.62,0,0,0-.17,1.13,1.73,1.73,0,0,1-.2,1.1,13.17,13.17,0,0,0-.86,2.18,2.67,2.67,0,0,0,.07,1.15,4.63,4.63,0,0,1-.6,3.4c-.14.21-.19.49-.32.71a12.75,12.75,0,0,0-1.79,4.92,6.16,6.16,0,0,1-.53,1.26c-.23.59-.76,1.1-.46,1.83-.35.91-.67,1.84-1.08,2.72a8.21,8.21,0,0,0-.67,2.23,6.24,6.24,0,0,1-1,3.11,4,4,0,0,0-.56,1.44,6.23,6.23,0,0,1-1.46,3.15,3.17,3.17,0,0,0-.69,2,8.54,8.54,0,0,1-1.11,2.88,58.35,58.35,0,0,0-2.89,5.54c-.84,2.07-2.31,3.76-3.19,5.8a11.2,11.2,0,0,1-1.26,2.82,21.42,21.42,0,0,1-2,2.17,4.2,4.2,0,0,0-1.17,2,5.06,5.06,0,0,1-1.64,2.59,21.81,21.81,0,0,0-2.28,2.42c-.25.29-.62.65-.62,1,0,1-.74,1.28-1.35,1.77-1.17.93-2.28,1.94-3.43,2.91-.5.42-1,.86-1.52,1.23a1.18,1.18,0,0,0-.63.93c-.05,1.26-.95,1.76-1.94,2.11a8.78,8.78,0,0,1-1.55.24.42.42,0,0,0-.23.26.4.4,0,0,0,.18.28c.11.06.27,0,.38.08.49.25.56.65.13.84-.83.36-1.4,1.16-2.36,1.33a1.69,1.69,0,0,0-.89.73c-.5.74-.92,1.54-1.39,2.32a4.19,4.19,0,0,1-.74,1.12c-.8.64-1.71,1.15-2.53,1.77a27.74,27.74,0,0,0-2.73,2.21,9.82,9.82,0,0,1-2.62,2,16,16,0,0,0-2.26,1.52c-.7.48-1.36,1-2.08,1.46s-1.68.34-2.24,1.12a.59.59,0,0,1-.52.15,1.69,1.69,0,0,0-1.95.53,3.72,3.72,0,0,1-1.68.95.85.85,0,0,0-.5.29c-.9,1.32-2.58,1.48-3.7,2.48-.16.15-.64.08-.9,0a3,3,0,0,0-1.93,0,1,1,0,0,0-.74,1.48,5.56,5.56,0,0,0,.71,1.16,19.23,19.23,0,0,0,4.54,4,4.93,4.93,0,0,1,1.33,1.12,3.12,3.12,0,0,0,.91.73,13.27,13.27,0,0,1,3.27,2.7,2.53,2.53,0,0,0,.65.43,4.53,4.53,0,0,1,1.81,2,8.41,8.41,0,0,0,.8,1.11c.21.33.55.67.56,1,0,1.43,1.09,2.45,1.45,3.75.16.57.79,1,.31,1.71a.27.27,0,0,0,0,.2c.93,2,.14,4.12.41,6.18a14,14,0,0,1-.41,3.49,2.19,2.19,0,0,1-1,1.43,38.83,38.83,0,0,1-3.68,2.6,14.53,14.53,0,0,1-3.45,1.37,4.22,4.22,0,0,1-2.31,0,7,7,0,0,1-2.94-1.5,5,5,0,0,0-1-.68,27.55,27.55,0,0,1-5.54-4.61c-1.28-1.31-2.59-2.58-4-3.78s-1.4-1.21-3.11-1.35a1.63,1.63,0,0,1,0-.54.94.94,0,0,0-.2-1.08,59.41,59.41,0,0,1-3.8-4.72c-1.07-1.3-2.05-2.67-3.24-3.89-1.69-1.72-3.29-3.54-4.94-5.3a20.41,20.41,0,0,0-4-3.1,1.44,1.44,0,0,0-1.83-.05,1.81,1.81,0,0,1-.92.27,3.49,3.49,0,0,0-2.68,1.41,1.89,1.89,0,0,1-1,.61,18,18,0,0,1-3,.79,3.24,3.24,0,0,1-2.93-1.32,37.69,37.69,0,0,1-2.22-3.23,3.94,3.94,0,0,1-.32-1.12c-.22-.82-.41-1.65-.68-2.46-.71-2-1.46-4-2.17-6.08a4.35,4.35,0,0,1-.12-1c0-.19,0-.49-.11-.56-.86-.55-.74-1.56-1.13-2.32a1.24,1.24,0,0,1-.1-1.09,3.57,3.57,0,0,0-.29-3.36,8.86,8.86,0,0,1-.73-2.75h1.44c-1-1.86-1-1.87.17-3.49a.88.88,0,0,0,.05-1.23,7.19,7.19,0,0,1-.46-.83,12.52,12.52,0,0,0,1.45,0c.73-.11,1-.39,1.06-1.15,0-.26,0-.53.07-.78a2.61,2.61,0,0,1,1.4-1.78c.69-.4,1.8-.08,2.09-1.18,0,0,.25,0,.29,0,.53.62,1.22.33,1.85.35.35,0,.66.07.64.52a.67.67,0,0,0,.56.7,6.92,6.92,0,0,0,4.24-.33c.48-.18.94-.45,1.41-.68a3.26,3.26,0,0,1,3.67.4c.78.59,1.62,1.11,2.44,1.64a4.26,4.26,0,0,0,.66.31c1.65-.89,3.25-1.76,4.87-2.61a2.7,2.7,0,0,1,1.1-.33,6.86,6.86,0,0,0,1.69-.42,10.9,10.9,0,0,1,2.86-.56,7.05,7.05,0,0,0,2.65-.62c1.26-.55,2.62-.75,3.88-1.28.72-.31,1.39-.73,2.12-1s.74-.82.86-1.4c.9-.31,1.74-1,2.78-.43.13.06.39-.06.55-.16.51-.29,1-.61,1.53-.95l-.43-.68c.07-.1.13-.25.22-.27.38-.08.78-.1,1.16-.19s.62-.12.68-.27c.37-.95,1.51-1,2-1.78a1.74,1.74,0,0,1,1.39-.62,1.23,1.23,0,0,0,1.25-1.25,1.2,1.2,0,0,1,.38-.84c.63-.43.35-1.05.41-1.48,1.24-.75,2.43-1.43,3.58-2.17a13.45,13.45,0,0,1,2.61-1.35,12.38,12.38,0,0,0,1.73-.9c.34-.19.63-.54,1-.62a1.8,1.8,0,0,0,1.35-1.23c.09-.21.34-.37.5-.54,1.12.73,1.12.73,2.54-.47l-.74-.19-.56-.12c0-.14,0-.3,0-.35.56-.54,1.15-1,1.7-1.6a9.56,9.56,0,0,0,1.72-2.11,11.69,11.69,0,0,1,2.34-2.87,20.17,20.17,0,0,0,3.23-4.41c.69-1.08,1-2.39,2.21-3.14.91-1.43,1.81-2.87,2.72-4.31a11.36,11.36,0,0,1,.73-1.16,24.88,24.88,0,0,0,3.07-5.67c.45-1.08,1.06-2.09,1.59-3.14.63-1.22,1.23-2.45,1.86-3.67.39-.75.19-1.66.73-2.39a5.89,5.89,0,0,0,1.13-2c.48-2,1.61-3.73,1.77-5.79a1.87,1.87,0,0,1,.18-.55c.66-1.85,1.32-3.69,2-5.53a7.77,7.77,0,0,0,.24-.95c.48-2,1-4.08,1.43-6.12a4.65,4.65,0,0,0-.24-3.26c-.45-.87-.74-1.83-1.24-2.67a4.69,4.69,0,0,0-3.22-2.35,10.28,10.28,0,0,1-2.77-.93,6.2,6.2,0,0,0-2-.65c-2.58-.42-5.15-.89-7.74-1.28a15.44,15.44,0,0,0-3.52-.22,16.59,16.59,0,0,0-3.2.78c-.82.24-1.6.57-2.41.82a26.74,26.74,0,0,0-5.4,2.3,9.14,9.14,0,0,1-1.62.65,1.09,1.09,0,0,0-.71.6,2.18,2.18,0,0,1-.7.9c-1.17.7-2.37,1.33-3.57,2a11.45,11.45,0,0,0-1.21.62c-.65.46-.7,1.52-1.85,1.55a8.07,8.07,0,0,0-2.2.78,4.77,4.77,0,0,0-1.9,1,2.16,2.16,0,0,1-1,.57c-2.43.47-4.78,1.32-7.25,1.66a21.29,21.29,0,0,0-3.95,1.1,5.73,5.73,0,0,0-1.64,1c-.3.25-.52.57-1,.63a1,1,0,0,0-.94.86,1.55,1.55,0,0,1-1,1.1c-1.67.61-2.64,2.06-3.91,3.16-.55,1.74-2.12,2.15-3.56,2.74a2.81,2.81,0,0,0-1.16.69,3.48,3.48,0,0,1-2.13,1.57.83.83,0,0,0-.44.37c-.57.88-1.14,1.74-1.66,2.65-.19.34-.26.78-.69.88a8,8,0,0,1-1.54.23c-.14,0-.34-.18-.44-.33a5.11,5.11,0,0,1-.57-1,1,1,0,0,0-1-.74,1.5,1.5,0,0,1-1.44-.84c-.7-1-1.52-2-2.12-3-.4-.73-.4-1.65-.91-2.36,0-1.67-1.08-3-1.3-4.65a13.36,13.36,0,0,0-.06-1.91c-.18-.59-.85-1-1-1.64-.3-1.53-.79-3-1.05-4.56a2.71,2.71,0,0,1,.14-.82c.49.08.91.17,1.35.21a.43.43,0,0,0,.37-.56c-.32-.56-.67-1.11-1-1.68-.14-.25-.55-.5-.13-.8.08-.05.37.27.59.31a6,6,0,0,0,1.33.09c.11,0,.34-.33.3-.41-.51-1.11-1.07-2.2-1.67-3.42.13-.2.49-.5.5-.82s-.32-.67-.49-1c0-.05,0-.12,0-.27.17,0,.41,0,.47.08.6.93,1.55.85,2.46.87.32,0,.54-.42.4-.74s-.41-.81-.59-1.24a.53.53,0,0,1,.65-.68,8.38,8.38,0,0,0,3.48.31c.78,0,1-.27,1.23-1a2.77,2.77,0,0,0,.13-.57,1.9,1.9,0,0,1,1.62-1.92,3,3,0,0,0,1.25-.9,1.84,1.84,0,0,1,1.4-.57c.2,0,.39,0,.59,0a3.21,3.21,0,0,0,2.6-1.14,7.85,7.85,0,0,0,.88-1.06,7.48,7.48,0,0,1,2.21-2.41,12,12,0,0,0,2-2.41c.44-.57.83-1.17,1.28-1.73a4,4,0,0,0,1-1.45c.07-.29.37-.52.58-.76.43-.5.85-1,1.3-1.47a1.08,1.08,0,0,0,.24-1.42,1,1,0,0,1,0-1.25c.08-.09.17-.26.14-.35-.41-1.16.38-1.86,1-2.54a26.62,26.62,0,0,0,3.47-4.42,18.37,18.37,0,0,1,2.24-3.12c1.13-1.17,2-2.59,3-3.85s1.79-2.74,2.79-4c1.24-1.6,2.05-3.49,3.45-5a3.76,3.76,0,0,0,.7-1.17,4.12,4.12,0,0,1,.86-1.28,14.87,14.87,0,0,0,1.71-2.39c.92-1.58,1.76-3.22,2.61-4.84.6-1.16,1.18-2.33,1.77-3.5.15-.29.41-.58.42-.88a7.29,7.29,0,0,1,1.54-3.51,1.63,1.63,0,0,0,.26-.53,22.7,22.7,0,0,1,1.46-4.25c.23-.61.47-1.22.66-1.85a3.26,3.26,0,0,0,.23-1.32,1.77,1.77,0,0,1,.51-1.77c.14-.14.1-.48.12-.73s-.06-.43,0-.57c1.09-1.82,1-3.88,1.25-5.88a8.25,8.25,0,0,0-.18-2.52,10.87,10.87,0,0,0-1.32-3.2,1.34,1.34,0,0,0-1.52-.62,8.29,8.29,0,0,1-5.46-.87,8,8,0,0,0-6.31-.42,8.9,8.9,0,0,1-3.26.54,15.22,15.22,0,0,0-4.59.91c-3,.83-5.9,1.78-8.83,2.72A107.14,107.14,0,0,0,226,84c-.81.64-1.75,1.09-2.51,1.82a3.4,3.4,0,0,1-1.66.91,3.61,3.61,0,0,0-2.19,1.55,3.15,3.15,0,0,1-.94,1,4.83,4.83,0,0,0-1.39,1.35c-.33.45-1.19.32-1.28,1.09-.51.28-1,.6-1.53.84s-1,.57-1.1,1.24c0,.46-.36.67-.7.89s-.53.38-.82.54A11.6,11.6,0,0,0,209.32,97,7.18,7.18,0,0,1,207.91,98a4.46,4.46,0,0,0-1.82,1.45,1.15,1.15,0,0,1-.42.4,9,9,0,0,0-3.39,3.17c-.65.88-1.6,1.53-2,2.61a.73.73,0,0,1-.37.43c-1.32.29-1.76,1.53-2.48,2.4-1.55,1.84-2.92,3.84-4.38,5.75-.31.41-.73.75-1.07,1.14a10.53,10.53,0,0,0-2.74,4.69,2.33,2.33,0,0,0-.15.75,15.69,15.69,0,0,0,.77,3.23,22.42,22.42,0,0,1,1.2,4.74,3.4,3.4,0,0,0,.82,2.15.69.69,0,0,1,.18.53c-.31,1.36.83,2.48.62,3.82a.49.49,0,0,0,.12.36c.32.4.82.74.94,1.18s-.27,1-.16,1.51c.39,1.71.84,3.42,1.37,5.1a29.13,29.13,0,0,1,1.49,5.66,7.55,7.55,0,0,0,1.24,3.67,4.53,4.53,0,0,1,.91,2.76,4.18,4.18,0,0,0,.29,1.33,11.9,11.9,0,0,1,.46,3.88,18.08,18.08,0,0,0,.66,5.62,3.54,3.54,0,0,1,.16,1.16c-.06.93.47,1.94-.31,2.79a10.65,10.65,0,0,1-.28,2.92,3.3,3.3,0,0,1-.41,1.49,1.32,1.32,0,0,0-.19.93c.31.85-.16,1.53-.38,2.27s-1,1.38-.89,2.34c0,.15-.31.39-.52.52a1.19,1.19,0,0,0-.55,1.67,1.93,1.93,0,0,1,0,1.89c-.43.73,0,1.58-.37,2.29s-.84,1.3-1.17,2a5.54,5.54,0,0,0-.44,1.7,2.67,2.67,0,0,1-.8,1.72c-.31.29-.24.66,0,1.06.45.86.42.88-.36,1.34a4.16,4.16,0,0,0-.51.28.51.51,0,0,0-.19.68c.13.22.45.55.41.61-.57.73.22,1.5-.11,2.25-.23.53-.34,1.12-.53,1.68a2.3,2.3,0,0,0-.11,1.71,2.38,2.38,0,0,1,0,1C192.3,203.51,191.62,203.88,190.72,204.14Zm-31.44-23.86a.61.61,0,0,0,0,.19c.45.9.9,1.79-.28,2.53a1,1,0,0,0-.3.7c-.09.89-.91,1.64-.48,2.62-.72,1.21-.69,2.63-1.12,3.92s-.91,2.59-1.35,3.89a4.92,4.92,0,0,0-.24,1.14c-.07,1-.1,1.95-.14,2.93a1.85,1.85,0,0,1-.31,1.09,2.38,2.38,0,0,0-.22,1.1,13.58,13.58,0,0,0,.72,4.6,2.48,2.48,0,0,0,.87,1.24,1,1,0,0,0,1.68-.52c.29-.75.42-.82,1-.27a1.57,1.57,0,0,0,1.56.58c.71-.22,1.07.07,1.46.62,1,1.48,2.73,1.66,4.32,2a1.2,1.2,0,0,0,1.32-.62c.62-1,1.32-2,1.92-3a19.36,19.36,0,0,0,.88-2c.32-.72.65-1.43.95-2.16a5.06,5.06,0,0,0,.7-2c-.06-1,.9-1.26,1-2,0-.2.09-.39.13-.58.18-.94.71-1.85.32-2.86.38-.9.79-1.79,1.14-2.7a11.91,11.91,0,0,0,.33-1.34c.61-2.6,1.24-5.21,1.83-7.82a2.06,2.06,0,0,0,0-1.32,1.22,1.22,0,0,1,.32-1.82c.3-.28.24-1,.29-1.5.06-.71,0-1.44.1-2.15.2-2.15.43-4.29.64-6.44a10.11,10.11,0,0,1,.11-1.36,15.68,15.68,0,0,0,.23-4.88,2.27,2.27,0,0,1,.07-.94,7.33,7.33,0,0,0,.3-3.11c-.13-1.5-.08-3-.15-4.5-.08-1.76-.29-3.52-.48-5.28-.22-2.07-.46-4.15-.73-6.22a10.07,10.07,0,0,0-.46-1.69,3.5,3.5,0,0,0-.49-.7c-.9,1.79-2.18,3.14-2.79,4.9a1.86,1.86,0,0,1-1.12,1.29,1,1,0,0,0-.67.88,3.77,3.77,0,0,1-.56,1.63c-.74.85-1.15,1.9-1.84,2.75a11.7,11.7,0,0,0-1.82,4.1,5.24,5.24,0,0,0-.12,1.54c0,.26.09.55-.21.67-.63.27-.78.84-.95,1.41-.59,1.94-1.59,3.72-2,5.72-.21.94-.92,1.73-.91,2.77,0,.23-.23.46-.37.68s-.47.54-.5.83c-.16,1.63-1,3.09-1.09,4.75a4.81,4.81,0,0,1-1.13,3.08,3,3,0,0,0-.41,1.67C160.13,179.45,160.16,179.46,159.28,180.28Z"/></g><g id="レイヤー_2-2" data-name="レイヤー 2"><circle class="cls-2" cx="184.33" cy="184.33" r="174.33"/></g></g></svg>