<svg xmlns="http://www.w3.org/2000/svg" viewBox="0 0 425.2 425.2"><defs><style>.cls-1{fill:none;stroke:#000;stroke-miterlimit:10;stroke-width:20px;}</style></defs><g id="レイヤー_1" data-name="レイヤー 1"><path d="M219,232.4c.28.7.47,1.16.73,1.79-.54-.05-.91-.12-1.28-.12a.75.75,0,0,0-.52.18c-.2.26,0,.47.2.64a.29.29,0,0,1,.13.14c0,.11.09.26,0,.34a.39.39,0,0,1-.32.17c-.25,0-.49-.16-.74-.23a.83.83,0,0,0-1,.32c-.69,1.13-1.84,2.06-1.65,3.62,0,.18-.25.42-.41.59s-.44.3-.58.5,0,.36.08.52a.38.38,0,0,0,.33.11,21.21,21.21,0,0,0,1.91-1.35c.65-.54,1.22-1.18,1.86-1.75a.54.54,0,0,1,.51,0,.66.66,0,0,1,.16.52,1.59,1.59,0,0,1-1,1.53c-.24.1-.46.22-.78.37.11.35.22.64.3.94s-.08.55-.37.55a4.55,4.55,0,0,0-1.94.1c-.52.22-.66.32-.56,1a1.08,1.08,0,0,1-.26,1.06c-.28.28-.52.59-.78.9,1,.37,1,.41,1.4-.19a1.82,1.82,0,0,1,2.17-1l-.62.77c-.69.9-.69.9.22,1.81a.6.6,0,0,1-.07,1c-.16.1-.36.15-.53.24a5.65,5.65,0,0,0-.53.29,3.18,3.18,0,0,0,.1.58c.21.46.29.88-.25,1.17a1.17,1.17,0,0,0-.53.76c-.3.88-.72,1.19-1.56,1a1.34,1.34,0,0,0-1.6.57c.45.41.93.82,1.36,1.27a.62.62,0,0,1,0,.55c-.06.13-.32.3-.43.27a2.26,2.26,0,0,0-2.54,1c-.2.24-.37.5-.59.79a8.39,8.39,0,0,1,1.1.58c.4.28.68.64.29,1.14a.8.8,0,0,0-.07.92.84.84,0,0,1-.27,1.21c-.92.62-1.27,1.81-2.33,2.31-.18.08-.3.43-.33.67a11.85,11.85,0,0,0,0,1.33,2.68,2.68,0,0,1-.51.41,4.35,4.35,0,0,0-2.27,2.33,3.16,3.16,0,0,1-1.95,1.82,3.44,3.44,0,0,0-2,1.45c-.49.75-1.46,1.13-1.73,2.09a.38.38,0,0,1-.28.24c-1,.15-1.45,1-2.07,1.68a12,12,0,0,1-1.85,1.71,1.67,1.67,0,0,1-2.18.17c-.05,0-.1-.11-.16-.11-1.34,0-2.45-.71-3.68-1.07a13.52,13.52,0,0,0-2.34-.26c-.77-1.19-.77-1.19-2.27-1-.55-.63-1.1-1.27-1.66-1.9a2,2,0,0,0-.57-.51,3.35,3.35,0,0,1-2-2.5,1.78,1.78,0,0,0-1.51-1.57.78.78,0,0,1-.67-.61c-.22-.75-.41-1.51-.64-2.38a8.69,8.69,0,0,0-1-.34,2.9,2.9,0,0,1-2.21-1.75c-.08-.18-.24-.33-.31-.51a9.57,9.57,0,0,0-2-3.28,3,3,0,0,1-.95-1.68,2,2,0,0,0-1.1-1.54,8,8,0,0,1-2.43-2.24,3.29,3.29,0,0,0-3.28-1.39c-1,.12-1.84.19-2.15-1-1-.24-1.11-1.2-1.57-1.87-.23-.34,0-.63.27-.84a2.81,2.81,0,0,1,.52-.26c.93-.49,1.06-1.05.36-1.82a3.62,3.62,0,0,0-1.07-.85,1.49,1.49,0,0,1-1-1.73c0-.06,0-.13,0-.19a2.21,2.21,0,0,0-1.22-2.24c.3-.63.54-1.09.74-1.56a8.36,8.36,0,0,0,0-6.67,2.17,2.17,0,0,1,.11-1.48,12.65,12.65,0,0,0,.42-3.25,2.82,2.82,0,0,1,.35-1.86c.16-.23.1-.62.13-.93s-.08-.47,0-.57a3.26,3.26,0,0,0,.75-2.73c0-.2.23-.46.41-.63s.48-.46.38-.83a.85.85,0,0,1,.27-.87c.26-.29.65-.64.63-.95-.08-1.79,1.38-3.08,1.46-4.84a5.63,5.63,0,0,1,.91-2.36c.94-1.67,1.1-3.61,2.06-5.28a3.2,3.2,0,0,0,.58-2.79c0-.11.11-.36.24-.44a3.75,3.75,0,0,0,1.46-2.88A10.86,10.86,0,0,1,170,196c1.09-2.15,1.91-4.44,2.87-6.67q1.63-3.78,3.3-7.56c.71-1.61,1.37-3.26,2.18-4.82,1.38-2.66,2.38-5.49,3.93-8.07.83-1.38,1.29-3,2-4.43,1-2,2.1-4.07,3.32-6,.66-1.05,1.14-2.18,1.75-3.25,1.49-2.63,3.29-5,5-7.52a8.13,8.13,0,0,0,.9-1.73,3.81,3.81,0,0,1,.89-1.48c.83-.85.89-1.31.18-2.23a17.54,17.54,0,0,0-3.88-3.86,16.56,16.56,0,0,0-3.82-2,3.21,3.21,0,0,0-1.14-.22,13.84,13.84,0,0,1-2.31-.34,10.31,10.31,0,0,0-4.83.42,8.26,8.26,0,0,1-1.5.44,13.9,13.9,0,0,0-5.13,1.83,15.19,15.19,0,0,0-2.27,1.85c-.6.5-1.21,1-1.81,1.5-.25.21-.62.41-.69.67-.26,1-1.16,1.34-1.83,1.9-.2.17-.55.25-.63.45-.47,1.2-1.69,1.58-2.5,2.41a7.89,7.89,0,0,0-1.33,1.65,7.32,7.32,0,0,1-1.84,2.51,1.31,1.31,0,0,0-.46.61,9.82,9.82,0,0,1-2.29,3.39,3.83,3.83,0,0,0-1,1.44,1.55,1.55,0,0,1-.57.75,1.67,1.67,0,0,0-.82,1.81,2.09,2.09,0,0,1-.56,1.59,3.48,3.48,0,0,0-1,1.82c-.26,1-1.12,1.76-1.14,2.87,0,.11-.13.23-.22.32-1.14,1-1.42,2.45-2,3.77a5.79,5.79,0,0,1-.49,1.26,7.77,7.77,0,0,0-1.3,3,6.82,6.82,0,0,1-.87,2.57c-.29.43-.1,1.17-.35,1.67a2.18,2.18,0,0,0-.2,2,1.17,1.17,0,0,1-.19.9,4.87,4.87,0,0,0-.82,2.79,1.53,1.53,0,0,1-.2.75,10.9,10.9,0,0,0-.86,3.59,4.35,4.35,0,0,1-.86,2.36,1.43,1.43,0,0,0-.29,1.45c.3,1-.44,1.89-.42,2.87-.86.94-.64,2.1-.58,3.19a1.63,1.63,0,0,1-.72,1.66,3.14,3.14,0,0,0-1.1,2c-.23.93.17,2-.48,2.83,0,1,0,2,.05,2.94,0,.52,0,1.05,0,1.57,0,1-.19,1.86-1.35,2,.13,1,.26,1.81.33,2.64,0,.31.07.77-.11.95-.78.75-.45,1.71-.5,2.55a5.8,5.8,0,0,1-.32,2.44,2.24,2.24,0,0,0-.08,1,5,5,0,0,1-.93,3.33,2.42,2.42,0,0,0-.29,1.1,8.92,8.92,0,0,0-.06,1.37,3.31,3.31,0,0,1-.66,2.57c-.2.22-.18.62-.28.93s-.13.6-.31.7c-1,.59-.78,1.53-.73,2.42,0,.58.23,1.18-.22,1.7a.47.47,0,0,0-.12.36c.42,1.14-.14,2.17-.32,3.25a2.73,2.73,0,0,0-.07,1,3.47,3.47,0,0,1-.19,2.64c-.13.21,0,.62.11.92s-.48,1,.26,1.14c.49.1.46-.54.72-.78a1,1,0,0,1,.71-.16c.11,0,.24.28.27.44a7.36,7.36,0,0,0,.12,1.17c.29.79.47,1.51-.34,2.11a.39.39,0,0,0-.13.35c.22,1-.61,1.32-1.24,1.75-.05,0-.06.11-.16.31.37.52.75,1.12,1.18,1.69a1.45,1.45,0,0,1,.3,1.46,2.84,2.84,0,0,0,.14,2.1,2.43,2.43,0,0,1,.19,1.13,4.67,4.67,0,0,0,.84,3.34,1.41,1.41,0,0,1,.21,1.65,1.63,1.63,0,0,0-.11,1.32,1.6,1.6,0,0,1-.77,1.84c-.6.4-1.12.91-1.69,1.34a2.17,2.17,0,0,1-2.21.43c-.42-.16-1-.1-1.31-.35a3.25,3.25,0,0,0-2.81-.35,21.59,21.59,0,0,1-3.1.42,1.83,1.83,0,0,1-1.29-.32c-1-1-2-.59-3-.31-.06,0-.11.07-.17.09-1.54.56-1.93.43-3.14-1a.75.75,0,0,1,.09-.15c.31-.28,1.09,0,1-.63,0-.51-.62-.61-1.06-.74a3.56,3.56,0,0,1-2.21-1.75c-.36-.69-1.35-.83-1.5-1.73,0-.11-.31-.2-.49-.27s-.56-.1-.72-.27c-1.42-1.43-3.28-2.11-5-3a5,5,0,0,1-2.15-1.93,4.34,4.34,0,0,0-1-1.19,3.4,3.4,0,0,1-1.14-1.32,2.54,2.54,0,0,0-1.92-1.72c-.23-.07-.41-.31-.65-.52a9.39,9.39,0,0,1,.2-.95,1.29,1.29,0,0,0-.31-1.44,3,3,0,0,1-.78-2.14,6.48,6.48,0,0,0-.94-3.36,13.34,13.34,0,0,1-.61-3.2c.15-1,.32-1.93.49-2.9a11.6,11.6,0,0,0,.29-1.54,7.14,7.14,0,0,1,1.39-3.82,9.53,9.53,0,0,0,1.53-2.73c.08-.29.4-.5.57-.77.48-.7,1-1.39,1.39-2.13a1.77,1.77,0,0,0,.19-.94c-.19-2.34,0-4.69-.34-7a13.66,13.66,0,0,1,.07-2.55,7.53,7.53,0,0,0-.32-2.1c-.13-.57.26-1.25.34-1.88a7.76,7.76,0,0,0-.08-1.17,32.05,32.05,0,0,1,0-3.53,10.15,10.15,0,0,0-.39-3.69,12.57,12.57,0,0,1-.41-2.1,23.82,23.82,0,0,0-3.21-9.81c-.57-.95-.92-2-1.46-3-1-1.84-2.06-3.65-3.13-5.45a5.19,5.19,0,0,0-1-1c-.19-.18-.49-.27-.62-.48-1.11-1.91-3-3-4.6-4.39-.48-.43-.89-.94-1.38-1.37s-1-.8-1.53-1.19c0,0-.15,0-.18-.07-1-1.28-2.66-1.58-4-2.43a5,5,0,0,1-1.48-1.25,12.67,12.67,0,0,0-3.11-3,19,19,0,0,1-4.2-4.09,10.63,10.63,0,0,0-2.5-2.18l-.57-.42c0-.45.27-.54.51-.53a3.4,3.4,0,0,0,1.85-.61A13.49,13.49,0,0,1,78,155.88c2-.44,4-.82,6-1.26a16.85,16.85,0,0,1,10.2.88,38.43,38.43,0,0,0,5.51,2,12.72,12.72,0,0,1,5.15,2.64,14.1,14.1,0,0,0,2.37,1.27,18,18,0,0,1,1.9,1,11,11,0,0,0,2.26,1.17,8.08,8.08,0,0,1,1.2.63,12.6,12.6,0,0,0,1.14.71,4.4,4.4,0,0,1,1.4,1.06,10.43,10.43,0,0,0,1.17,1c.2.17.56.29.59.47.17.95,1,1.21,1.64,1.57a5.09,5.09,0,0,1,2.18,2.63,2.33,2.33,0,0,0,.27.52.92.92,0,0,0,1.62.06,77.29,77.29,0,0,0,4.86-6.91c1.52-2.37,3.22-4.59,4.91-6.84a24.27,24.27,0,0,0,1.9-3,3.38,3.38,0,0,1,1.18-1.25,2.11,2.11,0,0,0,.78-.82,4.07,4.07,0,0,1,2.12-2.59c.43-.18.54-.63.48-1.17-.12-1.05.14-1.28,1.21-1.47a1.61,1.61,0,0,0,.72-.23,10.66,10.66,0,0,0,1.35-1.42,1.75,1.75,0,0,0,.3-2c-.17-.32.15-.51.58-.38,1.16.34,1.36.18,1.29-1,0-.12,0-.25,0-.5.27-.06.57-.12.87-.2a2.09,2.09,0,0,0,1.13-1c.36-.51-.3-.8-.28-1.32.25,0,.5,0,.75-.07s.5-.12.85-.2a4.33,4.33,0,0,1-.18-.76,1.3,1.3,0,0,1,.16-.48l.49.29a2,2,0,0,1,.23.15,17.16,17.16,0,0,0,3.14-2.53,1.26,1.26,0,0,0,.31-1.4c-.22-.59-.07-.71.58-1,.29-.12.71-.18.85-.4.78-1.3,2.36-1.62,3.26-2.75,2.24-1,4-2.64,6.22-3.68a29.55,29.55,0,0,1,3.32-1.69,34.91,34.91,0,0,0,3.38-1.51,33.23,33.23,0,0,1,11-2.51,15.92,15.92,0,0,1,1.95.05,4.51,4.51,0,0,0,1,0,1.91,1.91,0,0,1,1.69.14c.23.17.63.07,1,.13.57.09,1.14.19,1.72.31.32.06.63.17,1,.22a31.36,31.36,0,0,1,12,5.14,12.17,12.17,0,0,1,3.17,2.24,1.31,1.31,0,0,0,1.09.33,3.6,3.6,0,0,0,2.72-1.32,20.11,20.11,0,0,1,2-2.16c1.64-1.79,3.34-3.51,5-5.28.94-1,2-1.81,3-2.78,2.38-2.44,4.86-4.77,7.33-7.12.66-.62,1.33-1.22,2-1.88a20.09,20.09,0,0,1,2.82-2,37.79,37.79,0,0,0,3.76-2.8,6.5,6.5,0,0,1,2.94-1.87,2.58,2.58,0,0,0,1-.54c2.39-2,5.2-3.27,7.86-4.79.57-.33,1.17-.59,1.74-.92a5.33,5.33,0,0,1,2.5-1c1.68-1.08,3.74-1.11,5.52-1.92a4.25,4.25,0,0,1,1-.23,7.8,7.8,0,0,0,1-.13c1.77-.45,3.57-.84,5.3-1.4a26.75,26.75,0,0,1,5.59-1.05c.57-.06,1.17,0,1.64-.5a.8.8,0,0,1,.71-.14,5.88,5.88,0,0,0,2.54,0,40.75,40.75,0,0,1,8,0,11.52,11.52,0,0,0,1.18,0,34,34,0,0,1,6.57,1,24.55,24.55,0,0,1,4.84,1.53,5.94,5.94,0,0,0,1.49.5,10.31,10.31,0,0,1,3.89,1.79c.67.38,1.16,1,2,1.23.2,0,.37.34.5.55.26.45.48.93.72,1.4s.42.81.66,1.2c.42.68,1.63.74,1.46,1.89.43.73.89,1.44,1.29,2.19s.71,1.53,1.08,2.29a11.64,11.64,0,0,1,1.13,2.26c.42,1.85,1.45,3.5,1.55,5.44a6.12,6.12,0,0,0,.47,1.49,4.69,4.69,0,0,1,.33,2.5,13.83,13.83,0,0,0,0,3.52c0,.63.28,1.25-.23,1.83-.1.11-.07.38,0,.55a20.85,20.85,0,0,0,.59,2,1.92,1.92,0,0,1,.11.92,19.25,19.25,0,0,1-1.32,5.75.9.9,0,0,0,0,.72,1.37,1.37,0,0,1,.15,1.64,1.7,1.7,0,0,0-.14.57,7.06,7.06,0,0,1-.58,2.65c-.4.72-.19,1.69-.76,2.4a.6.6,0,0,0-.1.38,3.65,3.65,0,0,1-1.14,2.6,2.61,2.61,0,0,0-.57,1.43,4.66,4.66,0,0,1-1,2.49,7.39,7.39,0,0,0-1.21,2.45,10,10,0,0,1-1,2.12c-.37.61-.28,1.42-.95,1.9a1.2,1.2,0,0,0-.39.86c0,1.54-.95,2.67-1.64,3.89a2.35,2.35,0,0,0-.5,1.62,1.36,1.36,0,0,1-.51,1.22,14,14,0,0,1-1,1.13c-.57.45-1.1.84-1,1.72,0,.28-.47.59-.67.91a9.11,9.11,0,0,0-1.05,1.87,10.63,10.63,0,0,1-.52,2c-.3.56.27,1,.26,1.46-.8.45-.76.47-1.36,1.47a17.39,17.39,0,0,1-1.31,1.69,6.92,6.92,0,0,0-.53.8.52.52,0,0,0,.44.71,3.64,3.64,0,0,1,1.14,0,3.9,3.9,0,0,0,2.32,0,2.8,2.8,0,0,1,1.34-.18,6.26,6.26,0,0,0,3.1,0,3.89,3.89,0,0,1,1.18,0c1.49.2,3,.5,4.46.63a31.84,31.84,0,0,1,7.27,1.61,53.59,53.59,0,0,1,5.85,2.21,38.44,38.44,0,0,1,7.32,4.92c1.27,1,2.26,2.33,3.72,3.13a1.47,1.47,0,0,1,.65.92,3.68,3.68,0,0,0,1.52,2.23,3.57,3.57,0,0,1,1.25,1.69c.3.91,1.09,1.64,1,2.7,0,.16.18.35.33.48a6.72,6.72,0,0,1,1.63,3.08,5.71,5.71,0,0,0,.61,1.43,3.13,3.13,0,0,1,.88,2.31c0,.29.2.61.31.91.42,1.24.83,2.48,1.28,3.71a2.78,2.78,0,0,0,.6,1,.89.89,0,0,1,.22,1,2.75,2.75,0,0,0,0,1.14c.16.9.4,1.78.53,2.68.05.36,0,1-.21,1.09-1,.55-.54,1.24-.42,2a9.12,9.12,0,0,1-.13,2.14,5.1,5.1,0,0,0-.18,1.13,1.68,1.68,0,0,1-.19,1.1,13.42,13.42,0,0,0-.86,2.17,2.82,2.82,0,0,0,.06,1.15,4.56,4.56,0,0,1-.59,3.4c-.15.22-.19.5-.33.72a12.87,12.87,0,0,0-1.79,4.91,5.25,5.25,0,0,1-.52,1.26c-.23.59-.77,1.11-.46,1.84-.36.91-.67,1.83-1.08,2.72a8.1,8.1,0,0,0-.67,2.23,6.15,6.15,0,0,1-1.05,3.11,4.06,4.06,0,0,0-.55,1.44,6.35,6.35,0,0,1-1.46,3.15,3,3,0,0,0-.69,2,9.07,9.07,0,0,1-1.11,2.88,57.17,57.17,0,0,0-2.89,5.54c-.84,2.07-2.31,3.76-3.19,5.8a11.19,11.19,0,0,1-1.27,2.82,21.31,21.31,0,0,1-2,2.17,4.39,4.39,0,0,0-1.17,2,4.92,4.92,0,0,1-1.64,2.6,20.88,20.88,0,0,0-2.27,2.42c-.26.29-.62.64-.63,1,0,1-.73,1.28-1.34,1.77-1.17.93-2.29,1.93-3.43,2.9a19.46,19.46,0,0,1-1.52,1.23,1.16,1.16,0,0,0-.63.93c-.05,1.26-1,1.76-2,2.12a9.69,9.69,0,0,1-1.54.24.4.4,0,0,0-.23.26.37.37,0,0,0,.18.28c.11.06.27,0,.38.08.49.25.56.65.13.84-.84.36-1.4,1.15-2.36,1.33a1.65,1.65,0,0,0-.89.73c-.5.74-.93,1.54-1.39,2.31a4.1,4.1,0,0,1-.74,1.13c-.81.64-1.71,1.15-2.53,1.77a27.74,27.74,0,0,0-2.73,2.21,9.78,9.78,0,0,1-2.62,2,16,16,0,0,0-2.26,1.53c-.7.48-1.36,1-2.08,1.46s-1.69.34-2.25,1.12a.56.56,0,0,1-.51.14,1.69,1.69,0,0,0-1.95.54,3.81,3.81,0,0,1-1.68.95.82.82,0,0,0-.5.29c-.91,1.32-2.58,1.48-3.7,2.47-.17.15-.64.09-.9,0a3,3,0,0,0-1.93,0,1,1,0,0,0-.74,1.48,5.16,5.16,0,0,0,.71,1.16,19.06,19.06,0,0,0,4.54,4,4.89,4.89,0,0,1,1.32,1.12,3.34,3.34,0,0,0,.92.73,13.23,13.23,0,0,1,3.26,2.7,2.72,2.72,0,0,0,.65.43,4.5,4.5,0,0,1,1.82,2,9,9,0,0,0,.79,1.11c.22.32.56.67.57,1,0,1.43,1.08,2.45,1.45,3.75.16.57.78,1,.31,1.71a.19.19,0,0,0,0,.19c.93,2,.14,4.13.4,6.19a13.61,13.61,0,0,1-.4,3.49,2.18,2.18,0,0,1-1,1.42,37.09,37.09,0,0,1-3.68,2.6,14.3,14.3,0,0,1-3.45,1.38,4.31,4.31,0,0,1-2.31,0,7,7,0,0,1-2.94-1.5,4.92,4.92,0,0,0-1-.68,27.94,27.94,0,0,1-5.54-4.61c-1.28-1.31-2.59-2.58-4-3.79s-1.4-1.2-3.12-1.34a1.94,1.94,0,0,1,0-.54.92.92,0,0,0-.19-1.08,59,59,0,0,1-3.8-4.72c-1.07-1.3-2-2.67-3.24-3.89-1.69-1.73-3.29-3.54-4.94-5.3a20.41,20.41,0,0,0-4-3.1,1.43,1.43,0,0,0-1.83,0,2,2,0,0,1-.92.27,3.46,3.46,0,0,0-2.68,1.41,1.91,1.91,0,0,1-1,.61,17,17,0,0,1-3,.78,3.2,3.2,0,0,1-2.93-1.32,34,34,0,0,1-2.22-3.22,4.14,4.14,0,0,1-.32-1.12c-.23-.82-.41-1.66-.69-2.46-.7-2-1.45-4.05-2.16-6.08a4.35,4.35,0,0,1-.12-1c0-.2,0-.49-.11-.56-.86-.56-.74-1.56-1.13-2.32a1.28,1.28,0,0,1-.11-1.09,3.56,3.56,0,0,0-.28-3.37,9,9,0,0,1-.74-2.74h1.45c-1-1.87-1-1.87.17-3.49a.88.88,0,0,0,.05-1.23,5.92,5.92,0,0,1-.46-.83,12.59,12.59,0,0,0,1.45,0c.72-.11,1-.39,1.06-1.16,0-.25,0-.52.07-.77a2.61,2.61,0,0,1,1.4-1.78c.68-.41,1.8-.08,2.09-1.18,0,0,.25,0,.29,0,.53.62,1.22.33,1.85.34.35,0,.66.07.64.53a.67.67,0,0,0,.56.7,6.89,6.89,0,0,0,4.23-.33,15.39,15.39,0,0,0,1.42-.68,3.26,3.26,0,0,1,3.67.4c.78.59,1.62,1.1,2.44,1.64a5.45,5.45,0,0,0,.66.31c1.65-.89,3.25-1.76,4.86-2.61a2.74,2.74,0,0,1,1.11-.33,6.86,6.86,0,0,0,1.69-.42,11.34,11.34,0,0,1,2.86-.57,6.86,6.86,0,0,0,2.65-.61c1.26-.56,2.62-.76,3.87-1.29.72-.3,1.4-.72,2.13-1s.74-.81.86-1.39c.9-.31,1.73-1,2.78-.43.13.06.38-.06.55-.16.5-.29,1-.61,1.53-.95l-.43-.69c.07-.09.13-.25.22-.26.38-.09.78-.11,1.16-.19s.62-.12.68-.28c.36-.95,1.51-1,2-1.78a1.83,1.83,0,0,1,1.4-.62,1.23,1.23,0,0,0,1.25-1.25,1.16,1.16,0,0,1,.38-.83c.63-.44.34-1.05.41-1.48,1.24-.75,2.43-1.43,3.58-2.17a13.41,13.41,0,0,1,2.6-1.36,11,11,0,0,0,1.74-.9c.34-.19.63-.53,1-.61a1.8,1.8,0,0,0,1.35-1.23c.09-.22.34-.37.5-.54,1.12.73,1.12.73,2.54-.47l-.74-.19-.56-.12c0-.14,0-.3,0-.36.56-.54,1.15-1,1.7-1.59a9.56,9.56,0,0,0,1.72-2.11,11.33,11.33,0,0,1,2.34-2.87,20.5,20.5,0,0,0,3.23-4.41c.69-1.08,1-2.39,2.21-3.14l2.72-4.31a12.73,12.73,0,0,1,.73-1.17,24.6,24.6,0,0,0,3.06-5.66c.46-1.08,1.07-2.1,1.6-3.14.62-1.22,1.23-2.45,1.86-3.67.39-.75.18-1.66.73-2.39a5.93,5.93,0,0,0,1.13-2c.48-2,1.61-3.72,1.76-5.78a2.47,2.47,0,0,1,.19-.56c.65-1.84,1.31-3.68,2-5.53a7.62,7.62,0,0,0,.24-.94c.48-2,1-4.08,1.43-6.12a4.65,4.65,0,0,0-.25-3.26c-.44-.88-.73-1.83-1.24-2.67a4.64,4.64,0,0,0-3.21-2.35,10,10,0,0,1-2.77-.94,6.49,6.49,0,0,0-2-.64c-2.58-.42-5.15-.89-7.73-1.28a16,16,0,0,0-3.52-.23,16.72,16.72,0,0,0-3.21.79c-.81.24-1.59.57-2.4.82a26.79,26.79,0,0,0-5.4,2.29,8.7,8.7,0,0,1-1.62.65,1.13,1.13,0,0,0-.71.61,2.24,2.24,0,0,1-.7.9c-1.17.7-2.38,1.33-3.58,2a10.4,10.4,0,0,0-1.2.61c-.65.47-.7,1.53-1.85,1.56a8.07,8.07,0,0,0-2.2.78,4.77,4.77,0,0,0-1.9,1,2.36,2.36,0,0,1-1,.57c-2.44.46-4.78,1.32-7.25,1.66a21.6,21.6,0,0,0-4,1.1,5.82,5.82,0,0,0-1.63,1.05c-.31.24-.53.57-1,.63a1,1,0,0,0-.93.86,1.56,1.56,0,0,1-1.05,1.09c-1.67.62-2.64,2.07-3.91,3.17-.55,1.74-2.12,2.14-3.56,2.74a2.91,2.91,0,0,0-1.17.69,3.47,3.47,0,0,1-2.13,1.57c-.16,0-.33.21-.43.37-.57.87-1.15,1.74-1.66,2.64-.19.34-.26.78-.69.89a8,8,0,0,1-1.54.23c-.14,0-.34-.18-.45-.33a6,6,0,0,1-.56-1,1,1,0,0,0-1-.74,1.52,1.52,0,0,1-1.43-.84c-.7-1-1.52-2-2.12-3-.4-.72-.4-1.64-.91-2.35,0-1.67-1.08-3.05-1.3-4.65a15,15,0,0,0-.06-1.91c-.18-.59-.86-1.06-1-1.64-.3-1.54-.79-3-1.05-4.56a3,3,0,0,1,.13-.82c.49.08.92.17,1.35.21a.43.43,0,0,0,.38-.56c-.32-.56-.67-1.12-1-1.68-.14-.25-.56-.5-.13-.8.08-.06.37.27.59.31a5.92,5.92,0,0,0,1.33.09c.11,0,.34-.33.3-.41-.52-1.11-1.07-2.2-1.68-3.43.13-.19.49-.49.5-.81s-.31-.67-.48-1c0,0,0-.12,0-.28.17,0,.41,0,.47.09.6.92,1.55.85,2.45.87a.53.53,0,0,0,.41-.74c-.18-.42-.42-.82-.59-1.24a.53.53,0,0,1,.65-.69,8.23,8.23,0,0,0,3.48.32c.78-.05,1-.28,1.23-1a2.9,2.9,0,0,0,.12-.57,1.9,1.9,0,0,1,1.63-1.92,2.92,2.92,0,0,0,1.24-.9,1.85,1.85,0,0,1,1.41-.58c.2,0,.39,0,.59,0a3.22,3.22,0,0,0,2.6-1.15,8.74,8.74,0,0,0,.88-1.05,7.48,7.48,0,0,1,2.21-2.41,12,12,0,0,0,2-2.41c.44-.57.83-1.17,1.28-1.73a4,4,0,0,0,1-1.45c.08-.29.38-.52.59-.77.42-.49.85-1,1.3-1.46a1.08,1.08,0,0,0,.24-1.42.94.94,0,0,1,0-1.25c.08-.09.17-.26.13-.35-.41-1.16.39-1.86,1-2.54a26.45,26.45,0,0,0,3.46-4.42,18.5,18.5,0,0,1,2.25-3.13c1.13-1.17,1.95-2.58,3-3.84s1.79-2.74,2.78-4c1.24-1.6,2.06-3.49,3.46-5a3.65,3.65,0,0,0,.7-1.17,4.37,4.37,0,0,1,.86-1.28,15,15,0,0,0,1.71-2.38c.92-1.59,1.75-3.22,2.61-4.84.6-1.16,1.18-2.34,1.77-3.5.15-.3.41-.58.42-.88a7.23,7.23,0,0,1,1.54-3.52,1.59,1.59,0,0,0,.26-.52,22.7,22.7,0,0,1,1.46-4.25c.23-.61.47-1.22.66-1.85a3.26,3.26,0,0,0,.23-1.32,1.79,1.79,0,0,1,.51-1.78c.14-.13.1-.47.12-.72s-.06-.43,0-.57c1.09-1.82,1-3.88,1.25-5.88a8.23,8.23,0,0,0-.18-2.52,11.14,11.14,0,0,0-1.32-3.2,1.33,1.33,0,0,0-1.52-.62,8.29,8.29,0,0,1-5.46-.87,8,8,0,0,0-6.31-.43,9.16,9.16,0,0,1-3.26.55,15.34,15.34,0,0,0-4.6.91c-3,.83-5.89,1.78-8.82,2.72a107.14,107.14,0,0,0-3.58,1.93c-.81.64-1.75,1.09-2.51,1.81a3.37,3.37,0,0,1-1.67.92,3.58,3.58,0,0,0-2.18,1.55,3.38,3.38,0,0,1-.94,1,5,5,0,0,0-1.4,1.34c-.32.46-1.19.32-1.27,1.09a16.33,16.33,0,0,1-1.53.84c-.57.26-1,.58-1.1,1.25a1.19,1.19,0,0,1-.7.88c-.28.18-.54.39-.82.55a11.27,11.27,0,0,0-2.55,1.79,7.6,7.6,0,0,1-1.41,1,4.38,4.38,0,0,0-1.82,1.45,1.1,1.1,0,0,1-.43.4,9.07,9.07,0,0,0-3.38,3.16,12,12,0,0,0-2,2.62c-.07.17-.22.39-.37.42-1.32.3-1.76,1.54-2.49,2.41-1.54,1.84-2.91,3.83-4.37,5.75-.31.41-.73.75-1.07,1.14a10.53,10.53,0,0,0-2.74,4.69c-.05.25-.2.52-.15.75a15.68,15.68,0,0,0,.76,3.23,22.45,22.45,0,0,1,1.21,4.74,3.39,3.39,0,0,0,.81,2.15.65.65,0,0,1,.19.52c-.32,1.37.82,2.48.62,3.83a.49.49,0,0,0,.12.36c.32.4.82.74.94,1.18s-.27,1-.17,1.5c.4,1.72.85,3.43,1.38,5.11a30,30,0,0,1,1.49,5.65,7.49,7.49,0,0,0,1.24,3.68,4.49,4.49,0,0,1,.9,2.75,4.55,4.55,0,0,0,.3,1.34,11.9,11.9,0,0,1,.46,3.88,18.37,18.37,0,0,0,.65,5.62,3.49,3.49,0,0,1,.17,1.15c-.06.94.47,2-.31,2.8a10.94,10.94,0,0,1-.28,2.91,3.31,3.31,0,0,1-.41,1.5,1.25,1.25,0,0,0-.19.92c.3.86-.16,1.54-.38,2.28s-1,1.38-.9,2.34c0,.15-.3.39-.51.52a1.19,1.19,0,0,0-.55,1.67,1.88,1.88,0,0,1,0,1.88c-.43.74,0,1.59-.36,2.29s-.85,1.31-1.17,2a5.85,5.85,0,0,0-.45,1.7,2.58,2.58,0,0,1-.79,1.71c-.31.3-.25.67,0,1.07.45.86.41.88-.36,1.34a4.16,4.16,0,0,0-.51.28.5.5,0,0,0-.19.68c.12.22.45.55.41.6-.57.74.22,1.51-.11,2.25-.23.54-.34,1.13-.53,1.68a2.32,2.32,0,0,0-.11,1.72,2.39,2.39,0,0,1,0,1C220.57,231.78,219.89,232.15,219,232.4Zm-31.44-23.86c0,.07,0,.14,0,.19.44.91.9,1.8-.29,2.54a1,1,0,0,0-.29.7c-.09.89-.92,1.64-.48,2.62-.72,1.21-.7,2.63-1.12,3.92s-.91,2.59-1.35,3.89a4.47,4.47,0,0,0-.24,1.13c-.08,1-.1,2-.15,2.93a1.79,1.79,0,0,1-.3,1.1,2.26,2.26,0,0,0-.23,1.1,14,14,0,0,0,.72,4.59,2.57,2.57,0,0,0,.87,1.25,1,1,0,0,0,1.69-.52c.29-.76.42-.82,1-.27a1.61,1.61,0,0,0,1.57.58c.71-.22,1.07.07,1.46.62,1,1.48,2.73,1.65,4.31,2a1.2,1.2,0,0,0,1.33-.63c.61-1,1.32-1.94,1.91-2.95a17.45,17.45,0,0,0,.89-2c.32-.72.65-1.43.95-2.16a5.1,5.1,0,0,0,.7-2c-.07-1,.9-1.25,1-2,0-.19.09-.38.13-.57.18-1,.7-1.85.32-2.86.38-.9.78-1.79,1.13-2.7a8.74,8.74,0,0,0,.33-1.34c.62-2.6,1.25-5.21,1.84-7.82a2,2,0,0,0,0-1.32,1.24,1.24,0,0,1,.33-1.83c.3-.27.24-1,.28-1.49.07-.72,0-1.44.11-2.15.2-2.15.43-4.29.64-6.44a8.83,8.83,0,0,1,.11-1.37,15.62,15.62,0,0,0,.23-4.87,2.27,2.27,0,0,1,.07-.94,7.2,7.2,0,0,0,.29-3.12c-.13-1.5-.08-3-.14-4.49-.08-1.76-.29-3.52-.48-5.28q-.33-3.12-.73-6.22a10.18,10.18,0,0,0-.46-1.7A3.82,3.82,0,0,0,205,168c-.9,1.79-2.19,3.14-2.79,4.9a1.84,1.84,0,0,1-1.13,1.28,1,1,0,0,0-.66.88,3.81,3.81,0,0,1-.57,1.63c-.73.86-1.14,1.91-1.83,2.76a11.7,11.7,0,0,0-1.82,4.1,5.2,5.2,0,0,0-.12,1.53c0,.27.09.56-.21.68-.64.27-.78.84-1,1.41-.59,1.93-1.59,3.72-2,5.72-.21.94-.92,1.73-.91,2.77,0,.23-.24.45-.37.67s-.47.55-.5.84c-.16,1.62-1,3.09-1.09,4.75a4.87,4.87,0,0,1-1.13,3.08,3,3,0,0,0-.41,1.66C188.4,207.72,188.43,207.72,187.55,208.54Z"/></g><g id="レイヤー_2" data-name="レイヤー 2"><circle class="cls-1" cx="212.6" cy="212.6" r="174.33"/></g></svg>