<svg xmlns="http://www.w3.org/2000/svg" viewBox="0 0 500 159.41"><defs><style>.cls-1{fill:#fff;}</style></defs><g id="レイヤー_2" data-name="レイヤー 2"><g id="レイヤー_1-2" data-name="レイヤー 1"><path class="cls-1" d="M0,159.41V0H500V159.41ZM67.05,66.24l.26-.94a37.15,37.15,0,0,1-4.39-1.88,3.11,3.11,0,0,1-1.22-2.08c0-.31,1.09-1.06,1.74-1.12,3.23-.32,6.48-.62,9.72-.68,11.68-.19,23.36-.26,35-.42,2.63,0,4.19.89,5.34,3.47,2.56,5.76,2.35,11.84,2.44,17.83a30,30,0,0,1-1.64,11.26c-3.75,9.41-10.36,16.71-18.69,22.47-2.66,1.84-5.3,3.71-8.43,5.91,3,.52,7.1-1.48,10.84-4.21,19.5-14.25,26.08-32.87,18.57-56.38,1.87-.11,3-.22,4.13-.23,16.69-.18,33.39-.24,50.08-.58,6.76-.13,13.52-.79,20.26-1.39,1-.09,1.93-1.19,2.89-1.83a25.25,25.25,0,0,0-3.07-1.65,5.67,5.67,0,0,0-2.09,0c-4.64.29-9.28.68-13.92.86-11.31.44-22.61,1-33.92,1.09-8.71,0-17.44-.56-26.14-1.15-2.58-.17-5.18-2.54-7.42.78-.27.39-1.32.35-2,.35-12.48,0-25,0-37.45.16-4.84.07-9.68.65-14.5,1.2a2.91,2.91,0,0,0-2,1.92,3.53,3.53,0,0,0,1.3,2.89C57.25,64.17,61.85,66.33,67.05,66.24Zm169.82,10.7a13.14,13.14,0,0,1,2.21-1.12c1.43-.41,2.9-.68,4.35-1,.31,1.72,1.12,3.53.8,5.13a7.27,7.27,0,0,1-2.78,4.21c-2.87,1.9-6.09,3.27-9.12,4.93-.75.41-1.82,1.09-1.86,1.7s.77,1.63,1.46,2.12c3.79,2.69,3.83,2.66,1.35,6.8-1.58,2.62-.9,5,1,7,1.58,1.71,3.48,2.87,5.9,1.52,2.64-1.48,3.16-3.85,2.6-6.61-.07-.34-.17-.68-.26-1-1.25-4.71-.29-6.31,4.43-8.13,5-1.92,9.9-4,14.85-6a7.25,7.25,0,0,0-4.15-.2q-8.38,2.9-16.64,6.14c-1.84.72-3.25,1.12-4.18-1.33.87-.58,1.65-1.06,2.38-1.61,3.76-2.8,7.54-5.62,8.71-10.52a6.2,6.2,0,0,0-4.38-7.37C241,70.88,237.63,73.49,236.87,76.94Zm49.87,20.69c.5-5,.82-9.19,1.39-13.29a4.88,4.88,0,0,1,1.73-2.93c4.65-3.43,4.37-7.84,2.62-12.49a3.15,3.15,0,0,1,.7-3.94,5.14,5.14,0,0,0,.71-4.32c-1.11-3.4-4.33-4.28-7.43-5-.6-.14-1.36.38-2,.6.26.72.3,1.73.81,2.09,1.12.79,2.55,1.14,3.72,1.88,2.41,1.51,2.34,2.85-.23,4.1s-3.11,2.42-.7,4.58c3.43,3.07,3.09,7-.51,9.62a3.25,3.25,0,0,0-1,1C282.66,87,282.92,95,284.19,103c.28,1.74,2,2.4,3.06.84a53,53,0,0,0,3.58-7.2l-.78-.46Zm65.89,6.82c0-2.41-.41-4,.08-5.3a34.6,34.6,0,0,1,3.83-7.43c6.37-9,12.89-17.92,19.42-26.82,3.18-4.35,2.6-7.34-2.34-9.23-1.36-.52-3.26.36-4.91.6.86,1,1.52,2.43,2.6,2.89,2.88,1.23,3,2.47,1.16,4.92-6.53,8.74-13,17.55-19.18,26.55-2,2.91-3.19,6.44-4.36,9.82a4.42,4.42,0,0,0,1.1,3.64C350.6,104.71,352.18,104.41,352.63,104.45ZM228.08,56.63a45.83,45.83,0,0,1-2,5.56c-3.64,7-9.28,12.17-15.78,16.42-3.88,2.54-8.07,4.61-12.06,7-.64.38-1,1.34-1.41,2a21.94,21.94,0,0,0,2.76.51,2.67,2.67,0,0,0,1.25-.58c5.32-3.34,10.87-6.38,15.9-10.11,5.92-4.39,11.23-9.58,13.65-16.82,2.19-6.54.64-9.15-6-10.95a8.07,8.07,0,0,0-1.63-.56,26.41,26.41,0,0,0-2.94.21c.39,1.18.45,2.77,1.26,3.43,1.09.9,2.84.94,4.17,1.62A16.58,16.58,0,0,1,228.08,56.63ZM302.92,70l11.62-1.65.47,1.51c-1.26.87-2.53,1.72-3.78,2.61-1.78,1.27-4.14,2.19-5.18,3.91A70.77,70.77,0,0,0,301.27,87c-.29.7.16,1.7.27,2.56.95-.23,2.38-.14,2.76-.73,1.23-1.92,2.78-4,2.93-6.16.41-5.63,3.88-8.59,8.17-11.3,1.44-.9,3-2.43,3.33-3.94.18-.82-2.09-2.18-3.34-3.39,2.63-5.41,2.42-7.43-1.65-11-.66-.58-1.83-.57-2.76-.83-.24,1-1,2.37-.63,3.07.84,1.54,2.27,2.75,4,4.77-1.86,1.61-3.72,3.38-5.75,4.94S303.47,66.57,302.92,70ZM327.28,98.7l.15-1.6a55.52,55.52,0,0,0-7.82-1.95c-2.3-.25-3.75-.71-4.76-3.12s0-3.26,1.49-4.61c2.1-1.89,3-4.57,1.32-6.91-1.11-1.56-3.35-2.42-5.22-3.32-.42-.2-1.4.76-2.13,1.18.6.51,1.11,1.26,1.8,1.5,3,1,3.8,3,1.9,5.51a8,8,0,0,1-3,2.23c-2.22,1-2.36,2.09-.77,3.93,2.5,2.89,2.32,3.29-1.3,4.68-1.87.71-3.71,1.66-2.67,4s3.14,2.1,5.05,1c4-2.34,8.32-2.69,12.82-2.13A13.07,13.07,0,0,0,327.28,98.7ZM138.71,89.56C137,96,139.86,100,150.1,106.81c7.21,4.81,18.25,6.68,22.62,3.45C158.88,107.6,146,103.66,138.71,89.56Zm237.91-.39-1.25-3.68c-1.1.72-2.52,1.21-3.24,2.21-2.09,2.89-.77,5,4,5.73,8.19,1.2,16.22.43,23.76-3.31a7.53,7.53,0,0,0,1.58-1.47l-.25-.86C393,88.42,384.76,92.33,376.62,89.17Zm57.47.92-.61,1.66c2.1,1.44,4.3,2.76,6.28,4.35s3.85,3.54,5.76,5.32c2.37-4.12,2.26-5.06-1.31-7.35a53.54,53.54,0,0,0-6.75-3.65C436.49,90,435.22,90.18,434.09,90.09ZM228.72,74.81c-2.45-1-4.93-1.84-5.62,1.51-.55,2.69,2.64,6.7,5.24,6.9,2.85.22,5.64-1.81,5.72-4.15-5.52,2.1-5.8,2-7.74-2.59Zm160-30.49c-.86-3.59-3.29-5.36-6.23-6.44-1-.35-2.23.08-3.35.16.53,1.06.81,2.41,1.64,3.13a48,48,0,0,0,5.6,4,1.93,1.93,0,0,0,1.52.28C388.32,45.24,388.53,44.59,388.72,44.32ZM245.2,58.26c2.44-3.82,1.74-5.35-3.26-7.87A4.8,4.8,0,0,0,239,50.1a2.19,2.19,0,0,0-.77,1.9c.7,1,2,2.6,2.65,2.42C244.07,53.53,244.25,56,245.2,58.26Z"/><path d="M67.05,66.24c-5.2.09-9.8-2.07-14.31-4.32A3.53,3.53,0,0,1,51.44,59a2.91,2.91,0,0,1,2-1.92c4.82-.55,9.66-1.13,14.5-1.2,12.48-.19,25-.11,37.45-.16.68,0,1.73,0,2-.35,2.24-3.32,4.84-.95,7.42-.78,8.7.59,17.43,1.18,26.14,1.15,11.31,0,22.61-.65,33.92-1.09,4.64-.18,9.28-.57,13.92-.86a5.67,5.67,0,0,1,2.09,0A25.25,25.25,0,0,1,194,55.44c-1,.64-1.88,1.74-2.89,1.83-6.74.6-13.5,1.26-20.26,1.39-16.69.34-33.39.4-50.08.58-1.13,0-2.26.12-4.13.23,7.51,23.51.93,42.13-18.57,56.38-3.74,2.73-7.8,4.73-10.84,4.21,3.13-2.2,5.77-4.07,8.43-5.91,8.33-5.76,14.94-13.06,18.69-22.47A30,30,0,0,0,116,80.42c-.09-6,.12-12.07-2.44-17.83-1.15-2.58-2.71-3.51-5.34-3.47-11.67.16-23.35.23-35,.42-3.24.06-6.49.36-9.72.68-.65.06-1.78.81-1.74,1.12a3.11,3.11,0,0,0,1.22,2.08,37.15,37.15,0,0,0,4.39,1.88Z"/><path d="M236.87,76.94c.76-3.45,4.16-6.06,6.67-5.39a6.2,6.2,0,0,1,4.38,7.37c-1.17,4.9-4.95,7.72-8.71,10.52-.73.55-1.51,1-2.38,1.61.93,2.45,2.34,2,4.18,1.33q8.25-3.25,16.64-6.14a7.25,7.25,0,0,1,4.15.2c-4.95,2-9.86,4.13-14.85,6-4.72,1.82-5.68,3.42-4.43,8.13.09.33.19.67.26,1,.56,2.76,0,5.13-2.6,6.61-2.42,1.35-4.32.19-5.9-1.52-1.9-2.06-2.58-4.39-1-7,2.48-4.14,2.44-4.11-1.35-6.8-.69-.49-1.5-1.44-1.46-2.12s1.11-1.29,1.86-1.7c3-1.66,6.25-3,9.12-4.93A7.27,7.27,0,0,0,244.23,80c.32-1.6-.49-3.41-.8-5.13-1.45.32-2.92.59-4.35,1A13.14,13.14,0,0,0,236.87,76.94Zm2,23.26-1.69.12.42,4.64,1.65-.15C239.08,103.27,239,101.73,238.83,100.2Z"/><path d="M286.74,97.63l3.31-1.48.78.46a53,53,0,0,1-3.58,7.2c-1.07,1.56-2.78.9-3.06-.84-1.27-8-1.53-16,2.32-23.49a3.25,3.25,0,0,1,1-1c3.6-2.63,3.94-6.55.51-9.62-2.41-2.16-1.86-3.34.7-4.58s2.64-2.59.23-4.1c-1.17-.74-2.6-1.09-3.72-1.88-.51-.36-.55-1.37-.81-2.09.69-.22,1.45-.74,2-.6,3.1.73,6.32,1.61,7.43,5a5.14,5.14,0,0,1-.71,4.32,3.15,3.15,0,0,0-.7,3.94c1.75,4.65,2,9.06-2.62,12.49a4.88,4.88,0,0,0-1.73,2.93C287.56,88.44,287.24,92.58,286.74,97.63Z"/><path d="M352.63,104.45c-.45,0-2,.26-2.6-.36a4.42,4.42,0,0,1-1.1-3.64c1.17-3.38,2.36-6.91,4.36-9.82,6.18-9,12.65-17.81,19.18-26.55,1.83-2.45,1.72-3.69-1.16-4.92-1.08-.46-1.74-1.9-2.6-2.89,1.65-.24,3.55-1.12,4.91-.6,4.94,1.89,5.52,4.88,2.34,9.23-6.53,8.9-13,17.81-19.42,26.82a34.6,34.6,0,0,0-3.83,7.43C352.22,100.42,352.63,102,352.63,104.45Z"/><path d="M228.08,56.63a16.58,16.58,0,0,0-2.78-2.23c-1.33-.68-3.08-.72-4.17-1.62-.81-.66-.87-2.25-1.26-3.43a26.41,26.41,0,0,1,2.94-.21,8.07,8.07,0,0,1,1.63.56c6.62,1.8,8.17,4.41,6,10.95-2.42,7.24-7.73,12.43-13.65,16.82-5,3.73-10.58,6.77-15.9,10.11a2.67,2.67,0,0,1-1.25.58,21.94,21.94,0,0,1-2.76-.51c.46-.69.77-1.65,1.41-2,4-2.4,8.18-4.47,12.06-7,6.5-4.25,12.14-9.43,15.78-16.42A45.83,45.83,0,0,0,228.08,56.63Z"/><path d="M302.92,70c.55-3.42,3.77-3.47,5.73-5s3.89-3.33,5.75-4.94c-1.78-2-3.21-3.23-4-4.77-.38-.7.39-2,.63-3.07.93.26,2.1.25,2.76.83,4.07,3.54,4.28,5.56,1.65,11,1.25,1.21,3.52,2.57,3.34,3.39-.33,1.51-1.89,3-3.33,3.94-4.29,2.71-7.76,5.67-8.17,11.3-.15,2.13-1.7,4.24-2.93,6.16-.38.59-1.81.5-2.76.73-.11-.86-.56-1.86-.27-2.56a70.77,70.77,0,0,1,4.78-10.64c1-1.72,3.4-2.64,5.18-3.91,1.25-.89,2.52-1.74,3.78-2.61l-.47-1.51Z"/><path d="M327.28,98.7a13.07,13.07,0,0,1-3.13.38c-4.5-.56-8.8-.21-12.82,2.13-1.91,1.1-4,1.36-5.05-1s.8-3.28,2.67-4c3.62-1.39,3.8-1.79,1.3-4.68-1.59-1.84-1.45-2.9.77-3.93a8,8,0,0,0,3-2.23c1.9-2.54,1.11-4.47-1.9-5.51-.69-.24-1.2-1-1.8-1.5C311,78,312,77,312.44,77.19c1.87.9,4.11,1.76,5.22,3.32,1.66,2.34.78,5-1.32,6.91-1.49,1.35-2.47,2.27-1.49,4.61s2.46,2.87,4.76,3.12a55.52,55.52,0,0,1,7.82,1.95Z"/><path d="M138.71,89.56c7.33,14.1,20.17,18,34,20.7-4.37,3.23-15.41,1.36-22.62-3.45C139.86,100,137,96,138.71,89.56Z"/><path d="M376.62,89.17c8.14,3.16,16.33-.75,24.61-1.38l.25.86a7.53,7.53,0,0,1-1.58,1.47c-7.54,3.74-15.57,4.51-23.76,3.31-4.78-.71-6.1-2.84-4-5.73.72-1,2.14-1.49,3.24-2.21Z"/><path d="M434.09,90.09c1.13.09,2.4-.11,3.37.33a53.54,53.54,0,0,1,6.75,3.65c3.57,2.29,3.68,3.23,1.31,7.35-1.91-1.78-3.73-3.68-5.76-5.32s-4.18-2.91-6.28-4.35Z"/><path d="M228.72,74.81l-2.4,1.67c1.94,4.61,2.22,4.69,7.74,2.59-.08,2.34-2.87,4.37-5.72,4.15-2.6-.2-5.79-4.21-5.24-6.9C223.79,73,226.27,73.78,228.72,74.81Z"/><path d="M388.72,44.32c-.19.27-.4.92-.82,1.1a1.93,1.93,0,0,1-1.52-.28,48,48,0,0,1-5.6-4c-.83-.72-1.11-2.07-1.64-3.13,1.12-.08,2.38-.51,3.35-.16C385.43,39,387.86,40.73,388.72,44.32Z"/><path d="M245.2,58.26c-.95-2.23-1.13-4.73-4.33-3.84-.64.18-2-1.43-2.65-2.42a2.19,2.19,0,0,1,.77-1.9,4.8,4.8,0,0,1,2.95.29C246.94,52.91,247.64,54.44,245.2,58.26Z"/><path class="cls-1" d="M238.83,100.2c.13,1.53.25,3.07.38,4.61l-1.65.15-.42-4.64Z"/></g></g></svg>